# xmcd
#
# Track frame offsets:
#	150
#	13605
#	32347
#	48402
#	70090
#	80680
#	99290
#	114630
#	136975
#	149525
#	166570
#	183517
#
# Disc length: 2685 seconds
#
# Revision: 1
# Processed by: cddbd v1.5PL3 Copyright (c) Steve Scherf et al.
# Submitted via: audiograbber 1.83.01
#
DISCID=960a7b0c
DTITLE=Magic Frankie - Lucky
DYEAR=1997
DGENRE=Blues
TTITLE0=Electric City
TTITLE1=You Lost Your Good Thing
TTITLE2=Good Stuff
TTITLE3=I Want You So Bad
TTITLE4=Shaggy
TTITLE5=Luckiest Man
TTITLE6=Strollin'
TTITLE7=Reckless Child
TTITLE8=You Got A Hold On Me
TTITLE9=Lay It On Me
TTITLE10=Crazy Mixed Up World
TTITLE11=You Got  Your Father Callin'
EXTD=
EXTT0=
EXTT1=
EXTT2=
EXTT3=
EXTT4=
EXTT5=
EXTT6=
EXTT7=
EXTT8=
EXTT9=
EXTT10=
EXTT11=
PLAYORDER=
